<svg id="Ebene_1" data-name="Ebene 1" xmlns="http://www.w3.org/2000/svg" xmlns:xlink="http://www.w3.org/1999/xlink" viewBox="0 0 494.74 378.56"><defs><style>.cls-1,.cls-10,.cls-14,.cls-15,.cls-18{fill:none;}.cls-2{fill:#97bf0d;}.cls-3{fill:#1fa22e;}.cls-4{fill:#89ba17;}.cls-5{fill:#138928;}.cls-6{fill:#7c4d25;}.cls-7{fill:#009ee0;}.cls-8{clip-path:url(#clip-path);}.cls-9{fill:url(#Unbenannter_Verlauf_11);}.cls-10,.cls-11,.cls-12,.cls-13,.cls-14{stroke:#7c2a41;}.cls-10,.cls-11,.cls-12,.cls-13,.cls-14,.cls-15,.cls-16,.cls-18{stroke-miterlimit:10;}.cls-10,.cls-11,.cls-12,.cls-13,.cls-15,.cls-16{stroke-width:3px;}.cls-11,.cls-22{fill:#7c2a41;}.cls-12,.cls-16{fill:#5b7712;}.cls-13{fill:#be0a26;}.cls-15,.cls-16,.cls-18{stroke:#5b7712;}.cls-17{fill:#597724;}.cls-19{clip-path:url(#clip-path-2);}.cls-20,.cls-21{fill:#f29400;}.cls-21{font-size:73.42px;font-family:Rondalo;}.cls-22{font-size:30.59px;font-family:CenturyGothic-Bold, Century Gothic;font-weight:700;}</style><clipPath id="clip-path" transform="translate(60.61)"><rect class="cls-1" width="428" height="360"/></clipPath><radialGradient id="Unbenannter_Verlauf_11" cx="411.53" cy="89.38" r="103.42" gradientUnits="userSpaceOnUse"><stop offset="0.32" stop-color="#fdc800"/><stop offset="0.67" stop-color="#f8b334"/><stop offset="0.89" stop-color="#39a9dc"/><stop offset="1" stop-color="#009ee0"/></radialGradient><clipPath id="clip-path-2" transform="translate(60.61)"><rect class="cls-1" y="261.18" width="428" height="98.82"/></clipPath><symbol id="Pfeil_26" data-name="Pfeil 26" viewBox="0 0 45.72 26.28"><rect class="cls-1" width="45.72" height="26.28"/><polygon class="cls-6" points="0 19.48 22.93 19.48 22.93 26.28 45.72 13.14 22.93 0 22.93 6.8 0 6.8 0 19.48"/></symbol><symbol id="Gras_4" data-name="Gras 4" viewBox="0 0 44.77 23.83"><path class="cls-3" d="M30.51,17.44l1.52.93S31.68,3.63,32.62,0A49.46,49.46,0,0,0,30.51,17.44Z"/><path class="cls-3" d="M33.79,17.2,35,16.38s-.23-11.58.23-12.75C35.19,3.63,33.44,12.29,33.79,17.2Z"/><path class="cls-3" d="M23.52,22.54l-1.32-.82S22.46,10.13,21.94,9C21.94,9,23.91,17.63,23.52,22.54Z"/><path class="cls-4" d="M37.65,17.67l.82-.82.12-9.59S37.3,14.86,37.65,17.67Z"/><path class="cls-5" d="M28.76,17.67s0-9.59-1.06-11.94c0,0,0,9-.35,10.77Z"/><path class="cls-5" d="M44.77,21.55s0-9.59-1.06-11.93c0,0,0,9-.35,10.76Z"/><path class="cls-5" d="M35.54,19.19s1.06-6.9,3.87-8.66c0,0-3,6.09-2.7,9.6Z"/><path class="cls-5" d="M35.42,19.56s1.06-6.91,3.87-8.66c0,0-3,6.08-2.7,9.59Z"/><path class="cls-4" d="M33.67,17.34S33.79,9,31.33,7C31.33,7,33,15,32.5,19Z"/><path class="cls-3" d="M28.52,19.9s-.35-9.48,1.17-13.35c0,0-.58,12.76,0,15Z"/><path class="cls-4" d="M26.41,16s.12-6.55-.58-9.12c0,0-.12,9.94-.82,12.75Z"/><path class="cls-3" d="M27.24,19.78s-.59-6.44-3.75-9.25c0,0,3.28,8.31,2.81,11Z"/><path class="cls-3" d="M43.12,18.08s-.58-6.44-3.74-9.25c0,0,3.28,8.31,2.81,11Z"/><path class="cls-3" d="M39.06,19.08a7.29,7.29,0,0,1,1.4-4.92s-.82,5.74-.35,7.61Z"/><path class="cls-5" d="M38.33,20.54s0-7.52,2.07-10.31c0,0-1.58,9.58-1.09,13.22Z"/><path class="cls-4" d="M25.11,18.26S23.85,7.77,23.2,6.77c0,0,.83,10.93.31,13Z"/><path class="cls-4" d="M34.33,19.81S35.18,11,36.4,8.41c0,0-.49,7.16-.49,9.1Z"/><path class="cls-4" d="M40.52,20.29s.85-8.85,2.06-11.39c0,0-.49,7.15-.49,9.09Z"/><path class="cls-4" d="M29.6,17.75S30.94,7.44,30,4c0,0,1.94,10.19,1,15.53Z"/><path class="cls-3" d="M3.16,18l-1.52.76s.35-12-.59-15A33.66,33.66,0,0,1,3.16,18Z"/><path class="cls-3" d="M11.51,17.58l1.17-1S12.45,1.76,12.92.26C12.92.26,11.16,11.31,11.51,17.58Z"/><path class="cls-3" d="M10.16,22.92l1.31-.82s-.26-11.58.27-12.76C11.74,9.34,9.76,18,10.16,22.92Z"/><path class="cls-4" d="M15.37,18.05l.82-.82.12-9.6S15,15.24,15.37,18.05Z"/><path class="cls-5" d="M4.91,18.05S4.91,8.46,6,6.12c0,0,0,9,.35,10.76Z"/><path class="cls-5" d="M22.49,21.93s0-9.59-1-11.93c0,0,0,9-.35,10.76Z"/><path class="cls-5" d="M13.27,19.57s1.05-6.9,3.86-8.66c0,0-3,6.09-2.69,9.6Z"/><path class="cls-4" d="M0,17.72S-.11,9.41,2.34,7.42c0,0-1.64,8-1.17,11.94Z"/><path class="cls-3" d="M5.15,20.28S5.5,10.79,4,6.93c0,0,.58,12.76,0,15Z"/><path class="cls-4" d="M7.26,16.35s-.12-6.55.59-9.13c0,0,.11,10,.81,12.76Z"/><path class="cls-3" d="M20.85,18.46S20.26,12,17.1,9.21c0,0,3.28,8.31,2.81,11Z"/><path class="cls-3" d="M16.78,19.46a7.29,7.29,0,0,1,1.4-4.92s-.81,5.73-.35,7.61Z"/><path class="cls-5" d="M16.06,20.92s0-7.52,2.06-10.31c0,0-1.58,9.58-1.09,13.22Z"/><path class="cls-4" d="M8.56,18.64S9.82,8.15,10.48,7.15c0,0-.84,10.93-.32,13Z"/><path class="cls-4" d="M12.06,20.19s.85-8.86,2.06-11.4c0,0-.49,7.16-.49,9.09Z"/><path class="cls-4" d="M18.24,20.68s.85-8.86,2.07-11.41c0,0-.49,7.16-.49,9.1Z"/><path class="cls-4" d="M4.07,18.13S2.73,7.82,3.7,4.42c0,0-1.94,10.19-1,15.53Z"/><path class="cls-5" d="M10.12,19.94s-1-6.91-3.86-8.66c0,0,3.05,6.08,2.69,9.59Z"/><path class="cls-3" d="M16.83,20.16s-.58-6.44-3.74-9.25c0,0,3.28,8.31,2.81,11Z"/></symbol><symbol id="Dokument" data-name="Dokument" viewBox="0 0 103 69.05"><path class="cls-2" d="M103,65V0H0V65c20.5,7,35,4.67,49-5C63.5,50,94.5,51,103,65Z"/></symbol></defs><rect class="cls-7" x="60.61" width="428" height="360"/><g class="cls-8"><rect class="cls-9" x="62.66" width="425.95" height="299.48"/><rect class="cls-6" x="128.59" y="161.37" width="8.52" height="136.15"/><use width="45.72" height="26.28" transform="matrix(1.52, 0.01, -0.01, 1.11, 106.66, 153.17)" xlink:href="#Pfeil_26"/><use width="44.77" height="23.83" transform="translate(132.86 243.9) scale(2.77 2.55)" xlink:href="#Gras_4"/><path class="cls-10" d="M101.48,259a23.72,23.72,0,1,1-23.72-23.39A23.56,23.56,0,0,1,101.48,259Z" transform="translate(60.61)"/><path class="cls-10" d="M178.21,258.37A23.72,23.72,0,1,1,154.49,235,23.56,23.56,0,0,1,178.21,258.37Z" transform="translate(60.61)"/><line class="cls-10" x1="139.44" y1="258.37" x2="168.9" y2="258.37"/><line class="cls-10" x1="154.17" y1="226.39" x2="139.44" y2="258.37"/><line class="cls-10" x1="168.9" y1="258.37" x2="150.1" y2="218.36"/><line class="cls-10" x1="154.17" y1="226.59" x2="199.31" y2="226.59"/><line class="cls-10" x1="168.9" y1="258.37" x2="199.31" y2="226.39"/><path class="cls-11" d="M81,213.85s-6.16.66-1.66,5.78c4.66,5.07,8.35,1,8.35,1a18.37,18.37,0,0,1,6-1.43c5,.27,8,1.09,7.5-1.58-2.67-2.75-12-3.74-12-3.74A60,60,0,0,0,81,213.85Z" transform="translate(60.61)"/><path class="cls-10" d="M118.51,206.67s8.84-2.58,12.3,4.33l23.68,47.37" transform="translate(60.61)"/><path class="cls-12" d="M110.73,258.37a2.44,2.44,0,1,0-2.44,2.4A2.42,2.42,0,0,0,110.73,258.37Z" transform="translate(60.61)"/><path class="cls-13" d="M156.34,258.37a1.85,1.85,0,1,0-1.85,1.82A1.84,1.84,0,0,0,156.34,258.37Z" transform="translate(60.61)"/><path class="cls-13" d="M79.89,258.43A1.86,1.86,0,1,0,78,260.26,1.84,1.84,0,0,0,79.89,258.43Z" transform="translate(60.61)"/><line class="cls-10" x1="171.81" y1="248.98" x2="165.35" y2="267.75"/><line class="cls-10" x1="169.29" y1="248.36" x2="174.33" y2="248.36"/><line class="cls-10" x1="162.98" y1="267.75" x2="168.02" y2="267.75"/><line class="cls-14" x1="191.37" y1="258.37" x2="238.82" y2="258.37"/><line class="cls-10" x1="215.1" y1="281.76" x2="215.1" y2="234.98"/><line class="cls-14" x1="198.32" y1="274.97" x2="231.87" y2="241.89"/><line class="cls-14" x1="198.32" y1="241.89" x2="231.87" y2="274.97"/><line class="cls-14" x1="194.92" y1="246.06" x2="235.33" y2="270.57"/><line class="cls-14" x1="202.7" y1="278.24" x2="227.55" y2="238.39"/><line class="cls-14" x1="192.02" y1="263.79" x2="238.17" y2="252.94"/><line class="cls-14" x1="209.59" y1="235.62" x2="220.6" y2="281.12"/><line class="cls-14" x1="114.66" y1="259.07" x2="162.11" y2="259.07"/><line class="cls-14" x1="138.38" y1="282.45" x2="138.38" y2="235.68"/><line class="cls-14" x1="121.61" y1="275.67" x2="155.16" y2="242.59"/><line class="cls-14" x1="121.61" y1="242.59" x2="155.16" y2="275.67"/><line class="cls-14" x1="118.21" y1="246.76" x2="158.62" y2="271.27"/><line class="cls-14" x1="125.99" y1="278.94" x2="150.84" y2="239.09"/><line class="cls-14" x1="115.31" y1="264.49" x2="161.46" y2="253.64"/><line class="cls-14" x1="132.88" y1="236.32" x2="143.89" y2="281.82"/><path class="cls-15" d="M-18.1,241.16a21.08,21.08,0,0,1-26.5,13.28,20.67,20.67,0,0,1-13.47-26.13A21.08,21.08,0,0,1-31.57,215,20.67,20.67,0,0,1-18.1,241.16Z" transform="translate(60.61)"/><path class="cls-15" d="M46.71,261.42a21.08,21.08,0,0,1-26.5,13.28A20.68,20.68,0,0,1,6.74,248.57a21.08,21.08,0,0,1,26.5-13.27A20.65,20.65,0,0,1,46.71,261.42Z" transform="translate(60.61)"/><line class="cls-15" x1="23.6" y1="234.51" x2="48.42" y2="242.49"/><line class="cls-15" x1="44.92" y1="211.56" x2="23.6" y2="234.51"/><line class="cls-15" x1="48.42" y1="242.49" x2="43.72" y2="203.69"/><line class="cls-15" x1="44.86" y1="211.73" x2="82.89" y2="223.96"/><line class="cls-15" x1="48.42" y1="242.49" x2="82.95" y2="223.78"/><path class="cls-16" d="M-22.75,197.61s-5.38-1.12-3,4.41c2.52,5.54,6.77,3.08,6.77,3.08a16.29,16.29,0,0,1,5.44.41c4.13,1.59,6.43,3.09,6.75.71-1.48-3-9.06-6.4-9.06-6.4A51.33,51.33,0,0,0-22.75,197.61Z" transform="translate(60.61)"/><path class="cls-15" d="M10.82,201.7s8.17.22,9.16,7L26.73,255" transform="translate(60.61)"/><path class="cls-16" d="M-10.14,243.15a2.13,2.13,0,0,0-1.38-2.69,2.17,2.17,0,0,0-2.72,1.37,2.12,2.12,0,0,0,1.38,2.68A2.16,2.16,0,0,0-10.14,243.15Z" transform="translate(60.61)"/><path class="cls-17" d="M28.29,255.5a1.62,1.62,0,0,0-1.05-2,1.64,1.64,0,0,0-2.07,1,1.62,1.62,0,0,0,1,2A1.65,1.65,0,0,0,28.29,255.5Z" transform="translate(60.61)"/><path class="cls-17" d="M-36.14,234.85a1.62,1.62,0,0,0-1-2,1.65,1.65,0,0,0-2.07,1,1.62,1.62,0,0,0,1,2A1.65,1.65,0,0,0-36.14,234.85Z" transform="translate(60.61)"/><line class="cls-15" x1="53.49" y1="235.37" x2="42.81" y2="249.43"/><line class="cls-15" x1="51.54" y1="234.16" x2="55.78" y2="235.52"/><line class="cls-15" x1="40.82" y1="248.79" x2="45.06" y2="250.15"/><line class="cls-18" x1="67.35" y1="248.57" x2="107.32" y2="261.42"/><line class="cls-18" x1="80.82" y1="274.7" x2="93.85" y2="235.29"/><line class="cls-18" x1="68.58" y1="264.44" x2="106.05" y2="245.66"/><line class="cls-18" x1="77.79" y1="236.57" x2="96.84" y2="273.52"/><line class="cls-18" x1="73.77" y1="239.17" x2="100.99" y2="270.75"/><line class="cls-18" x1="71.36" y1="268.38" x2="103.4" y2="241.54"/><line class="cls-18" x1="66.39" y1="253.32" x2="108.29" y2="256.67"/><line class="cls-18" x1="89.04" y1="234.34" x2="85.63" y2="275.65"/><line class="cls-15" x1="2.53" y1="228.39" x2="42.5" y2="241.24"/><line class="cls-15" x1="16" y1="254.52" x2="29.03" y2="215.11"/><line class="cls-15" x1="3.76" y1="244.26" x2="41.24" y2="225.48"/><line class="cls-15" x1="12.98" y1="216.39" x2="32.02" y2="253.34"/><line class="cls-15" x1="8.95" y1="218.98" x2="36.17" y2="250.57"/><line class="cls-15" x1="6.54" y1="248.2" x2="38.58" y2="221.36"/><line class="cls-15" x1="1.57" y1="233.13" x2="43.47" y2="236.49"/><line class="cls-15" x1="24.22" y1="214.16" x2="20.82" y2="255.47"/><use width="44.77" height="23.83" transform="matrix(2.73, -0.48, 0.45, 2.51, 240.32, 241.97)" xlink:href="#Gras_4"/><use width="44.77" height="23.83" transform="matrix(2.7, 0.61, -0.58, 2.49, 51.22, 226.29)" xlink:href="#Gras_4"/><use width="44.77" height="23.83" transform="translate(370.54 221.73) scale(2.77 2.55)" xlink:href="#Gras_4"/><path class="cls-15" d="M232.23,252.68a20.7,20.7,0,0,1-17.15,23.9,21,21,0,0,1-24.27-17A20.71,20.71,0,0,1,208,235.71,21,21,0,0,1,232.23,252.68Z" transform="translate(60.61)"/><path class="cls-15" d="M299.14,240.93A20.69,20.69,0,0,1,282,264.83a21,21,0,0,1-24.28-17A20.71,20.71,0,0,1,274.87,224,21,21,0,0,1,299.14,240.93Z" transform="translate(60.61)"/><line class="cls-15" x1="272.97" y1="255.46" x2="298.7" y2="251.15"/><line class="cls-15" x1="280.97" y1="225.36" x2="272.97" y2="255.46"/><line class="cls-15" x1="298.7" y1="251.15" x2="276.19" y2="218.95"/><line class="cls-15" x1="281" y1="225.54" x2="320.42" y2="218.95"/><line class="cls-15" x1="298.7" y1="251.15" x2="320.39" y2="218.77"/><path class="cls-16" d="M207.52,216.24s-5.29,1.48-.58,5.3,7.44-.38,7.44-.38a16,16,0,0,1,5-2.12c4.41-.5,7.16-.22,6.31-2.48-2.74-2-11.05-1.51-11.05-1.51A52.57,52.57,0,0,0,207.52,216.24Z" transform="translate(60.61)"/><path class="cls-15" d="M239.14,204.49s7.34-3.55,11.41,2l27.88,37.92" transform="translate(60.61)"/><path class="cls-16" d="M240.22,250.79a2.16,2.16,0,0,0-2.5-1.74,2.14,2.14,0,0,0-1.76,2.46,2.17,2.17,0,0,0,2.5,1.74A2.14,2.14,0,0,0,240.22,250.79Z" transform="translate(60.61)"/><path class="cls-17" d="M280,244.13a1.64,1.64,0,1,0-1.33,1.86A1.6,1.6,0,0,0,280,244.13Z" transform="translate(60.61)"/><path class="cls-17" d="M213.29,255.36A1.64,1.64,0,0,0,211.4,254a1.62,1.62,0,0,0-1.34,1.87,1.65,1.65,0,0,0,1.9,1.32A1.6,1.6,0,0,0,213.29,255.36Z" transform="translate(60.61)"/><line class="cls-15" x1="299.81" y1="242.52" x2="297.02" y2="259.86"/><line class="cls-15" x1="297.52" y1="242.35" x2="301.92" y2="241.61"/><line class="cls-15" x1="294.96" y1="260.21" x2="299.35" y2="259.48"/><line class="cls-18" x1="318.32" y1="247.87" x2="359.75" y2="240.93"/><line class="cls-18" x1="342.59" y1="264.83" x2="335.48" y2="223.97"/><line class="cls-18" x1="326.92" y1="261.35" x2="351.18" y2="227.55"/><line class="cls-18" x1="321.88" y1="232.46" x2="356.21" y2="256.45"/><line class="cls-18" x1="319.55" y1="236.6" x2="358.57" y2="252.1"/><line class="cls-18" x1="331.24" y1="263.57" x2="346.87" y2="225.13"/><line class="cls-18" x1="319.71" y1="252.51" x2="358.36" y2="236.29"/><line class="cls-18" x1="330.77" y1="225.33" x2="347.3" y2="263.47"/><line class="cls-18" x1="251.44" y1="259.68" x2="292.87" y2="252.75"/><line class="cls-18" x1="275.72" y1="276.65" x2="268.6" y2="235.79"/><line class="cls-18" x1="260.04" y1="273.17" x2="284.3" y2="239.37"/><line class="cls-18" x1="255" y1="244.28" x2="289.33" y2="268.27"/><line class="cls-18" x1="252.67" y1="248.42" x2="291.69" y2="263.92"/><line class="cls-18" x1="264.36" y1="275.39" x2="280" y2="236.95"/><line class="cls-18" x1="252.83" y1="264.33" x2="291.48" y2="248.11"/><line class="cls-18" x1="263.89" y1="237.15" x2="280.42" y2="275.29"/><path class="cls-15" d="M355.13,240.53a22.49,22.49,0,0,1-23.79,21.31,22.83,22.83,0,0,1-21.73-23.67,22.46,22.46,0,0,1,23.78-21.3A22.83,22.83,0,0,1,355.13,240.53Z" transform="translate(60.61)"/><path class="cls-15" d="M428.78,243.78A22.46,22.46,0,0,1,405,265.08a22.82,22.82,0,0,1-21.74-23.67A22.47,22.47,0,0,1,407,220.11,22.83,22.83,0,0,1,428.78,243.78Z" transform="translate(60.61)"/><line class="cls-15" x1="394.03" y1="238.82" x2="422.3" y2="240.29"/><line class="cls-15" x1="409.57" y1="208.8" x2="394.03" y2="238.82"/><line class="cls-15" x1="422.3" y1="240.29" x2="406.01" y2="200.89"/><line class="cls-15" x1="409.56" y1="209" x2="452.87" y2="211.26"/><line class="cls-15" x1="422.3" y1="240.29" x2="452.88" y2="211.06"/><path class="cls-16" d="M337.48,196.13s-5.94.32-1.85,5.47c4.26,5.11,8,1.35,8,1.35a17.77,17.77,0,0,1,5.81-1.08c4.78.52,7.63,1.45,7.26-1.14-2.43-2.78-11.35-4.19-11.35-4.19A55.45,55.45,0,0,0,337.48,196.13Z" transform="translate(60.61)"/><path class="cls-15" d="M373.76,191.1s8.6-2,11.61,4.77L406,242.6" transform="translate(60.61)"/><path class="cls-16" d="M364,240.41A2.34,2.34,0,0,0,361.8,238a2.3,2.3,0,0,0-2.44,2.19,2.35,2.35,0,0,0,2.23,2.43A2.3,2.3,0,0,0,364,240.41Z" transform="translate(60.61)"/><path class="cls-17" d="M407.8,242.69a1.79,1.79,0,0,0-1.7-1.85,1.77,1.77,0,0,0-1.86,1.67,1.79,1.79,0,0,0,1.7,1.84A1.76,1.76,0,0,0,407.8,242.69Z" transform="translate(60.61)"/><path class="cls-17" d="M334.43,238.93a1.77,1.77,0,0,0-1.69-1.85,1.76,1.76,0,0,0-1.86,1.67,1.79,1.79,0,0,0,1.7,1.84A1.74,1.74,0,0,0,334.43,238.93Z" transform="translate(60.61)"/><line class="cls-15" x1="425.51" y1="231.41" x2="418.49" y2="249.13"/><line class="cls-15" x1="423.12" y1="230.68" x2="427.95" y2="230.94"/><line class="cls-15" x1="416.21" y1="249.01" x2="421.04" y2="249.26"/><line class="cls-18" x1="443.87" y1="241.41" x2="489.39" y2="243.78"/><line class="cls-18" x1="465.61" y1="265.08" x2="467.65" y2="220.11"/><line class="cls-18" x1="449.81" y1="257.72" x2="483.45" y2="227.59"/><line class="cls-18" x1="451.26" y1="225.92" x2="482" y2="259.4"/><line class="cls-18" x1="447.81" y1="229.76" x2="485.52" y2="255.34"/><line class="cls-18" x1="453.87" y1="261.08" x2="479.45" y2="224.01"/><line class="cls-18" x1="444.25" y1="246.66" x2="489.01" y2="238.54"/><line class="cls-18" x1="462.34" y1="220.45" x2="470.92" y2="264.75"/><line class="cls-18" x1="370.23" y1="238.25" x2="415.75" y2="240.62"/><line class="cls-18" x1="391.97" y1="261.92" x2="394.01" y2="216.95"/><line class="cls-18" x1="376.17" y1="254.56" x2="409.81" y2="224.43"/><line class="cls-18" x1="377.62" y1="222.76" x2="408.36" y2="256.23"/><line class="cls-18" x1="374.17" y1="226.6" x2="411.88" y2="252.18"/><line class="cls-18" x1="380.23" y1="257.92" x2="405.82" y2="220.85"/><line class="cls-18" x1="370.61" y1="243.49" x2="415.37" y2="235.37"/><line class="cls-18" x1="388.71" y1="217.29" x2="397.28" y2="261.58"/></g><use width="103" height="69.05" transform="translate(488.61 360) rotate(180) scale(4.16 1.41)" xlink:href="#Dokument"/><g id="Gras_4-9" data-name="Gras 4"><g class="cls-19"><path class="cls-3" d="M306,363l4.63,2.61s-.94-41.46,1.94-51.68C312.61,313.94,304.7,334.05,306,363Z" transform="translate(60.61)"/><path class="cls-3" d="M316,362.32l3.57-2.32s-.61-32.58.83-35.88C320.44,324.12,315,348.49,316,362.32Z" transform="translate(60.61)"/><path class="cls-5" d="M300.68,363.68s.08-27-3.11-33.56c0,0-.09,25.34-1.17,30.29Z" transform="translate(60.61)"/><path class="cls-4" d="M315.68,362.7s.42-23.37-7.06-28.94c0,0,4.93,22.36,3.47,33.56Z" transform="translate(60.61)"/><path class="cls-3" d="M299.94,369.94s-1-26.66,3.69-37.53c0,0-1.9,35.88-.13,42.12Z" transform="translate(60.61)"/><path class="cls-4" d="M293.54,358.93s.41-18.44-1.71-25.67c0,0-.44,28-2.61,35.89Z" transform="translate(60.61)"/><path class="cls-3" d="M296,369.62s-1.73-18.1-11.34-26c0,0,9.92,23.34,8.47,30.92Z" transform="translate(60.61)"/><path class="cls-4" d="M303.26,363.89s4.16-29,1.23-38.55c0,0,5.83,28.64,2.83,43.66Z" transform="translate(60.61)"/><path class="cls-3" d="M423.55,371l-3.64-2.08s.82-29.61-.63-32.59C419.28,336.29,424.69,358.4,423.55,371Z" transform="translate(60.61)"/><path class="cls-4" d="M428,360s-3.39-26.79-5.21-29.34c0,0,2.23,27.92.78,33.18Z" transform="translate(60.61)"/><path class="cls-5" d="M420.71,369.42s.08-24.52-2.82-30.5c0,0-.08,23-1.06,27.52Z" transform="translate(60.61)"/><path class="cls-3" d="M416.19,360.56s-1.58-16.45-10.31-23.6c0,0,9,21.21,7.7,28.09Z" transform="translate(60.61)"/><path class="cls-3" d="M46.42,363.71l-5,2.33s1.27-36.47-1.78-45.43C39.64,320.61,48,338.23,46.42,363.71Z" transform="translate(60.61)"/><path class="cls-3" d="M73.84,362.39l3.85-3.17s-.63-44.71.92-49.24C78.61,310,72.75,343.43,73.84,362.39Z" transform="translate(60.61)"/><path class="cls-3" d="M69.33,378.56l4.33-2.49s-.75-35.05,1-38.6C74.65,337.47,68.08,363.69,69.33,378.56Z" transform="translate(60.61)"/><path class="cls-5" d="M52.17,363.88s.1-29,3.58-36.12c0,0-.09,27.25,1,32.56Z" transform="translate(60.61)"/><path class="cls-3" d="M52.92,370.61s1.25-28.69-3.71-40.36c0,0,1.8,38.59-.14,45.32Z" transform="translate(60.61)"/><path class="cls-4" d="M59.89,358.72s-.32-19.83,2-27.63c0,0,.28,30.1,2.57,38.59Z" transform="translate(60.61)"/><path class="cls-4" d="M64.15,365.61s4.21-31.74,6.38-34.77c0,0-2.85,33.07-1.16,39.28Z" transform="translate(60.61)"/><path class="cls-4" d="M75.6,370.27s2.87-26.79,6.88-34.51c0,0-1.67,21.66-1.68,27.53Z" transform="translate(60.61)"/><path class="cls-4" d="M49.4,364.12S45.11,333,48.33,322.66c0,0-6.46,30.85-3.33,47Z" transform="translate(60.61)"/><path class="cls-5" d="M69.26,369.53s-3.4-20.88-12.6-26.16c0,0,9.93,18.38,8.75,29Z" transform="translate(60.61)"/></g></g><path class="cls-20" d="M208.44,107.1a15.51,15.51,0,1,1,15.72-15.51A15.63,15.63,0,0,1,208.44,107.1Zm0-29.89A14.39,14.39,0,1,0,223,91.59,14.51,14.51,0,0,0,208.44,77.21Z" transform="translate(60.61)"/><path class="cls-20" d="M208.4,93.29a1.5,1.5,0,1,1,1.51-1.5A1.51,1.51,0,0,1,208.4,93.29Zm0-1.89a.39.39,0,1,0,.4.39A.4.4,0,0,0,208.4,91.4Z" transform="translate(60.61)"/><rect class="cls-20" x="253.91" y="91.09" width="30.31" height="1.12"/><rect class="cls-20" x="268.51" y="76.71" width="1.12" height="29.89"/><rect class="cls-20" x="193.41" y="91.13" width="30.1" height="1.12" transform="translate(56.26 172.79) rotate(-44.6)"/><rect class="cls-20" x="207.9" y="76.64" width="1.12" height="30.1" transform="translate(57.42 175.75) rotate(-45.41)"/><rect class="cls-20" x="207.92" y="76.52" width="1.12" height="30.2" transform="translate(82.66 222.39) rotate(-58.77)"/><rect class="cls-20" x="193.47" y="91.06" width="30.01" height="1.12" transform="translate(81.02 220.02) rotate(-58.05)"/><rect class="cls-20" x="193.31" y="91.09" width="30.29" height="1.12" transform="translate(45.18 50.06) rotate(-13.21)"/><rect class="cls-20" x="207.9" y="76.69" width="1.12" height="29.91" transform="translate(44.91 51.57) rotate(-13.6)"/><path class="cls-20" d="M94.82,107.91a16.19,16.19,0,1,1,16.41-16.19A16.32,16.32,0,0,1,94.82,107.91Zm0-31.26a15.08,15.08,0,1,0,15.29,15.07A15.21,15.21,0,0,0,94.82,76.65Z" transform="translate(60.61)"/><path class="cls-20" d="M94.77,93.47a1.55,1.55,0,1,1,1.56-1.54A1.55,1.55,0,0,1,94.77,93.47Zm0-2a.44.44,0,0,0-.44.43.44.44,0,0,0,.44.43.43.43,0,1,0,0-.86Z" transform="translate(60.61)"/><rect class="cls-20" x="139.59" y="91.22" width="31.71" height="1.12"/><rect class="cls-20" x="154.88" y="76.15" width="1.12" height="31.26"/><rect class="cls-20" x="79.09" y="91.26" width="31.49" height="1.12" transform="translate(23.44 93.04) rotate(-44.6)"/><rect class="cls-20" x="94.27" y="76.08" width="1.12" height="31.49" transform="translate(23.47 94.87) rotate(-45.4)"/><rect class="cls-20" x="94.3" y="75.95" width="1.12" height="31.59" transform="translate(27.83 125.29) rotate(-58.77)"/><rect class="cls-20" x="79.16" y="91.19" width="31.39" height="1.12" transform="translate(27.42 123.68) rotate(-58.05)"/><rect class="cls-20" x="78.99" y="91.22" width="31.68" height="1.12" transform="matrix(0.97, -0.23, 0.23, 0.97, 42.15, 24.1)"/><rect class="cls-20" x="94.28" y="76.14" width="1.12" height="31.29" transform="translate(41.68 24.88) rotate(-13.6)"/><text class="cls-21" transform="translate(108.9 107.86) scale(1.01 1)">Fahrradtour</text><path class="cls-20" d="M306.6,107.07a15.51,15.51,0,1,1,15.71-15.5A15.63,15.63,0,0,1,306.6,107.07Zm0-29.89a14.39,14.39,0,1,0,14.6,14.39A14.51,14.51,0,0,0,306.6,77.18Z" transform="translate(60.61)"/><path class="cls-20" d="M306.55,93.26a1.5,1.5,0,1,1,1.52-1.5A1.51,1.51,0,0,1,306.55,93.26Zm0-1.89a.39.39,0,1,0,.4.39A.4.4,0,0,0,306.55,91.37Z" transform="translate(60.61)"/><rect class="cls-20" x="352.06" y="91.06" width="30.32" height="1.12"/><rect class="cls-20" x="366.66" y="76.68" width="1.12" height="29.89"/><rect class="cls-20" x="291.56" y="91.1" width="30.1" height="1.12" transform="translate(84.45 241.51) rotate(-44.56)"/><rect class="cls-20" x="306.05" y="76.61" width="1.12" height="30.1" transform="translate(86.68 245.64) rotate(-45.41)"/><rect class="cls-20" x="306.07" y="76.49" width="1.12" height="30.2" transform="translate(129.95 306.31) rotate(-58.77)"/><rect class="cls-20" x="291.63" y="91.03" width="30" height="1.12" transform="translate(127.15 303.17) rotate(-58.02)"/><rect class="cls-20" x="291.46" y="91.06" width="30.29" height="1.12" transform="translate(47.78 72.48) rotate(-13.21)"/><rect class="cls-20" x="306.05" y="76.67" width="1.12" height="29.91" transform="translate(47.66 74.64) rotate(-13.6)"/><text class="cls-22" transform="translate(196.41 333.06) scale(1.01 1)">02.07.2022</text></svg>