<svg width="1080" height="1920" viewBox="0 0 1080 1920" fill="none" xmlns="http://www.w3.org/2000/svg">
<path d="M1025 1600.81V1863.38H55V1600.81H0V1920H1080V1600.81H1025Z" fill="#253032"/>
<path d="M1015 1600.81H65V1853.08H1015V1600.81Z" fill="#253032"/>
<path d="M65 10.2949H1015V1600.81H1025V0H55V1600.81H65V10.2949Z" fill="#253032"/>
<path d="M150 1726.58V1635.13C150.95 1635.13 151.64 1635.13 152.08 1635.13C152.94 1635.13 153.59 1635.13 154.03 1635.13C154.81 1635.13 155.37 1635.13 155.72 1635.13C157.36 1635.13 158.73 1635.13 159.81 1635.13C160.89 1635.13 161.91 1635.13 162.86 1635.13C176.36 1635.13 187.91 1639.27 197.52 1647.54C207.56 1656.24 212.58 1667.11 212.58 1680.16C212.58 1696.02 206.87 1708.21 195.45 1716.74C186.71 1723.31 177.02 1726.59 166.37 1726.59H150V1726.58ZM162.33 1711.63C162.33 1714.53 164.36 1715.98 168.43 1715.98C175.09 1715.98 181.84 1712.91 188.68 1706.77C196.73 1699.52 200.75 1690.61 200.75 1680.03C200.75 1670.48 196.55 1662.24 188.16 1655.33C180.98 1649.36 174.1 1646.37 167.52 1646.37C164.06 1646.37 162.33 1647.57 162.33 1649.95V1711.63Z" fill="#E2D3B5"/>
<path d="M232.95 1701.83V1726.58H221.53V1665.53C221.53 1657.02 224.39 1649.82 230.1 1643.94C235.81 1638.06 242.86 1635.13 251.26 1635.13C259.48 1635.13 266.53 1638.11 272.42 1644.07C278.3 1650.03 281.25 1657.14 281.25 1665.4V1726.58H270.09V1704.1C270.09 1702.48 270.09 1701.29 270.09 1700.52C270.09 1699.5 270 1698.6 269.83 1697.84C269.66 1697.07 269.25 1696.44 268.6 1695.92C267.95 1695.41 266.93 1695.15 265.55 1695.15C264.42 1695.15 263.56 1695.15 262.95 1695.15H238.81C237.6 1695.15 236.78 1695.19 236.34 1695.28C235.65 1695.45 234.91 1695.86 234.13 1696.5C233.35 1697.14 232.96 1698.36 232.96 1700.15C232.95 1700.93 232.95 1701.49 232.95 1701.83ZM269.56 1677.28V1664.76C269.56 1659.48 267.87 1655.03 264.48 1651.41C261.09 1647.79 256.62 1645.98 251.06 1645.98C245.76 1645.98 241.48 1648.02 238.23 1652.11C234.97 1656.2 233.35 1661.01 233.35 1666.54V1677.91C233.35 1679.02 233.35 1679.83 233.35 1680.34C233.35 1681.53 233.65 1682.49 234.25 1683.21C234.85 1683.93 235.63 1684.4 236.58 1684.61C237.53 1684.82 238.69 1684.93 240.07 1684.93H261.93C262.79 1684.93 263.4 1684.93 263.74 1684.93C265.03 1684.93 265.85 1684.89 266.2 1684.8C266.97 1684.63 267.66 1684.21 268.27 1683.52C268.61 1683.18 268.92 1682.71 269.17 1682.11C269.43 1681.52 269.56 1680.75 269.56 1679.81C269.56 1678.73 269.56 1677.87 269.56 1677.28Z" fill="#E2D3B5"/>
<path d="M327.45 1653.52C325.63 1650.37 323.97 1648.28 322.45 1647.26C320.93 1646.24 318.79 1645.73 316.02 1645.73C312.65 1645.73 309.79 1647.05 307.45 1649.69C305.11 1652.33 303.95 1655.35 303.95 1658.76C303.95 1662.93 307.45 1666.51 314.46 1669.49C325.54 1674.17 332.07 1677.24 334.06 1678.69C341.07 1683.8 344.57 1691.12 344.57 1700.66C344.57 1708.07 341.86 1714.39 336.46 1719.63C331.05 1724.87 324.75 1727.48 317.57 1727.48C311.51 1727.48 305.84 1725.61 300.56 1721.86C294.85 1717.77 291.26 1712.58 289.79 1706.28L300.43 1701.81C301.29 1706.07 303.22 1709.56 306.21 1712.28C309.2 1715.01 312.85 1716.37 317.18 1716.37C321.51 1716.37 325.31 1714.8 328.6 1711.64C331.89 1708.49 333.53 1704.83 333.53 1700.66C333.53 1693.34 330.03 1687.93 323.02 1684.44C316.44 1681.89 309.91 1679.29 303.42 1676.65C296.41 1672.9 292.91 1666.99 292.91 1658.9C292.91 1652.43 295.01 1646.92 299.21 1642.36C303.41 1637.81 309.01 1635.53 316.02 1635.53C320.78 1635.53 325.08 1636.77 328.94 1639.23C332.79 1641.7 335.45 1645.06 336.92 1649.32L327.45 1653.52Z" fill="#E2D3B5"/>
<path d="M376.65 1646.75V1635.77H437.79V1646.75H419.1C418.06 1646.75 417 1646.77 415.92 1646.81C414.84 1646.85 414.1 1647.11 413.71 1647.58C413.32 1648.05 413.13 1648.84 413.13 1649.94C413.13 1650.71 413.13 1651.26 413.13 1651.6V1726.57H400.41V1651.72C400.41 1649.68 400.19 1648.4 399.76 1647.89C399.33 1647.38 398.76 1647.04 398.07 1646.87C397.64 1646.79 396.9 1646.74 395.86 1646.74H376.65V1646.75Z" fill="#E2D3B5"/>
<path d="M455.83 1701.83V1726.58H444.41V1665.53C444.41 1657.02 447.27 1649.82 452.98 1643.94C458.69 1638.06 465.74 1635.13 474.14 1635.13C482.36 1635.13 489.41 1638.11 495.3 1644.07C501.18 1650.03 504.13 1657.14 504.13 1665.4V1726.58H492.97V1704.1C492.97 1702.48 492.97 1701.29 492.97 1700.52C492.97 1699.5 492.88 1698.6 492.71 1697.84C492.54 1697.07 492.13 1696.44 491.48 1695.92C490.83 1695.41 489.81 1695.15 488.43 1695.15C487.3 1695.15 486.44 1695.15 485.83 1695.15H461.69C460.48 1695.15 459.66 1695.19 459.22 1695.28C458.53 1695.45 457.79 1695.86 457.01 1696.5C456.23 1697.14 455.84 1698.36 455.84 1700.15C455.83 1700.93 455.83 1701.49 455.83 1701.83ZM492.44 1677.28V1664.76C492.44 1659.48 490.75 1655.03 487.36 1651.41C483.97 1647.79 479.5 1645.98 473.94 1645.98C468.64 1645.98 464.36 1648.02 461.11 1652.11C457.86 1656.2 456.23 1661.01 456.23 1666.54V1677.91C456.23 1679.02 456.23 1679.83 456.23 1680.34C456.23 1681.53 456.53 1682.49 457.13 1683.21C457.73 1683.93 458.51 1684.4 459.46 1684.61C460.41 1684.82 461.57 1684.93 462.95 1684.93H484.81C485.67 1684.93 486.28 1684.93 486.62 1684.93C487.91 1684.93 488.73 1684.89 489.08 1684.8C489.85 1684.63 490.54 1684.21 491.15 1683.52C491.49 1683.18 491.8 1682.71 492.05 1682.11C492.31 1681.52 492.44 1680.75 492.44 1679.81C492.44 1678.73 492.44 1677.87 492.44 1677.28Z" fill="#E2D3B5"/>
<path d="M527.87 1726.7H517.62V1635.83L564.31 1688.82C565.59 1690.35 566.7 1691.5 567.64 1692.27C569.01 1693.38 569.95 1693.76 570.46 1693.42C570.89 1693.16 571.19 1692.25 571.36 1690.67C571.53 1689.1 571.62 1687.46 571.62 1685.76C571.62 1683.98 571.62 1682.91 571.62 1682.57V1635.89H582.65V1727.31L535.14 1673.19C533.84 1671.57 533.11 1670.68 532.93 1670.51C531.89 1669.57 530.85 1669.28 529.81 1669.62C528.51 1670.05 527.86 1671.24 527.86 1673.2C527.86 1674.56 527.86 1675.58 527.86 1676.27V1726.7H527.87Z" fill="#E2D3B5"/>
<path d="M596.54 1646.62V1635.76H649.5C646.04 1642.48 642.58 1649.19 639.12 1655.91C632.54 1668.83 626.09 1681.41 619.78 1693.66C612.77 1707.43 609.22 1714.4 609.14 1714.57C609.05 1715.08 609.38 1715.4 610.11 1715.53C610.84 1715.66 611.91 1715.72 613.29 1715.72H647.17V1726.45H588.24L629.13 1648.28C629.13 1647.6 628.74 1647.15 627.96 1646.94C627.18 1646.73 626.01 1646.62 624.46 1646.62C623.42 1646.62 622.69 1646.62 622.25 1646.62H596.54V1646.62Z" fill="#E2D3B5"/>
<path d="M669.1 1681.37C668.58 1681.71 668.32 1683.08 668.32 1685.48C668.32 1686.25 668.32 1687 668.32 1687.73C668.32 1688.46 668.32 1689.16 668.32 1689.85V1726.58H655.99V1635.77H668.32V1661.86C668.32 1663.3 668.32 1664.36 668.32 1665.04C668.32 1665.8 668.34 1666.55 668.38 1667.27C668.42 1667.99 668.68 1668.58 669.16 1669.05C669.64 1669.52 670.83 1669.75 672.74 1669.75H705.03C705.81 1669.75 706.37 1669.75 706.72 1669.75C708.02 1669.75 708.97 1669.69 709.58 1669.56C710.19 1669.43 710.54 1669.07 710.62 1668.48C710.88 1667.8 711.01 1666.91 711.01 1665.81C711.01 1664.45 711.01 1663.52 711.01 1663.01V1635.78H723.34V1726.59H711.01V1687.91C711.01 1686.63 711.01 1685.69 711.01 1685.09C711.01 1683.21 710.84 1682.06 710.49 1681.63C710.14 1681.12 709.41 1680.86 708.28 1680.86C707.24 1680.86 706.46 1680.86 705.94 1680.86H673.88C673.01 1680.86 672.36 1680.86 671.93 1680.86C670.66 1680.85 669.71 1681.02 669.1 1681.37Z" fill="#E2D3B5"/>
<path d="M747.25 1701.83V1726.58H735.83V1665.53C735.83 1657.02 738.69 1649.82 744.4 1643.94C750.11 1638.06 757.16 1635.13 765.56 1635.13C773.78 1635.13 780.83 1638.11 786.72 1644.07C792.6 1650.03 795.55 1657.14 795.55 1665.4V1726.58H784.39V1704.1C784.39 1702.48 784.39 1701.29 784.39 1700.52C784.39 1699.5 784.3 1698.6 784.13 1697.84C783.96 1697.07 783.55 1696.44 782.9 1695.92C782.25 1695.41 781.23 1695.15 779.85 1695.15C778.72 1695.15 777.86 1695.15 777.25 1695.15H753.11C751.9 1695.15 751.08 1695.19 750.64 1695.28C749.95 1695.45 749.21 1695.86 748.43 1696.5C747.65 1697.14 747.26 1698.36 747.26 1700.15C747.25 1700.93 747.25 1701.49 747.25 1701.83ZM783.85 1677.28V1664.76C783.85 1659.48 782.16 1655.03 778.77 1651.41C775.38 1647.79 770.91 1645.98 765.35 1645.98C760.05 1645.98 755.77 1648.02 752.52 1652.11C749.26 1656.2 747.64 1661.01 747.64 1666.54V1677.91C747.64 1679.02 747.64 1679.83 747.64 1680.34C747.64 1681.53 747.94 1682.49 748.54 1683.21C749.14 1683.93 749.92 1684.4 750.87 1684.61C751.82 1684.82 752.98 1684.93 754.36 1684.93H776.22C777.08 1684.93 777.69 1684.93 778.03 1684.93C779.32 1684.93 780.14 1684.89 780.49 1684.8C781.26 1684.63 781.95 1684.21 782.56 1683.52C782.9 1683.18 783.21 1682.71 783.46 1682.11C783.72 1681.52 783.85 1680.75 783.85 1679.81C783.85 1678.73 783.85 1677.87 783.85 1677.28Z" fill="#E2D3B5"/>
<path d="M806.96 1691.71V1635H818.51V1691.71C818.51 1698.61 819.94 1704.19 822.79 1708.44C826.25 1713.55 831.44 1716.1 838.37 1716.1C845.81 1716.1 851.09 1713.5 854.21 1708.31C856.55 1704.39 857.71 1698.77 857.71 1691.45V1635H869.26V1691.45C869.26 1702.18 866.92 1710.61 862.25 1716.74C856.88 1723.81 848.79 1727.34 837.98 1727.34C828.2 1727.34 820.5 1723.89 814.87 1716.99C809.6 1710.53 806.96 1702.1 806.96 1691.71Z" fill="#E2D3B5"/>
<path d="M913.14 1653.52C911.32 1650.37 909.66 1648.28 908.14 1647.26C906.62 1646.24 904.48 1645.73 901.71 1645.73C898.34 1645.73 895.48 1647.05 893.14 1649.69C890.8 1652.33 889.64 1655.35 889.64 1658.76C889.64 1662.93 893.14 1666.51 900.15 1669.49C911.23 1674.17 917.76 1677.24 919.75 1678.69C926.76 1683.8 930.26 1691.12 930.26 1700.66C930.26 1708.07 927.55 1714.39 922.15 1719.63C916.74 1724.87 910.44 1727.48 903.26 1727.48C897.2 1727.48 891.53 1725.61 886.26 1721.86C880.55 1717.77 876.96 1712.58 875.49 1706.28L886.13 1701.81C886.99 1706.07 888.92 1709.56 891.91 1712.28C894.9 1715.01 898.55 1716.37 902.88 1716.37C907.21 1716.37 911.01 1714.8 914.3 1711.64C917.59 1708.49 919.23 1704.83 919.23 1700.66C919.23 1693.34 915.73 1687.93 908.72 1684.44C902.14 1681.89 895.61 1679.29 889.12 1676.65C882.11 1672.9 878.61 1666.99 878.61 1658.9C878.61 1652.43 880.71 1646.92 884.91 1642.36C889.11 1637.81 894.71 1635.53 901.72 1635.53C906.48 1635.53 910.78 1636.77 914.64 1639.23C918.49 1641.7 921.15 1645.06 922.62 1649.32L913.14 1653.52Z" fill="#E2D3B5"/>
<path d="M258.87 1784.59V1817.86H252V1784.31C252 1779.61 253.25 1775.62 255.76 1772.34C258.46 1768.78 262.1 1767 266.68 1767C269.91 1767 272.54 1767.65 274.56 1768.96C276.2 1770.37 277.84 1771.77 279.48 1773.18C280.83 1771.57 282.47 1770.17 284.4 1768.99C286.57 1767.66 289.29 1767 292.57 1767C296.91 1767 300.38 1768.67 302.99 1772.01C305.59 1775.35 306.9 1779.55 306.9 1784.62V1817.86H300.03V1784.53C300.03 1781.49 299.4 1778.85 298.15 1776.61C296.7 1774.04 294.7 1772.76 292.15 1772.76C288.48 1772.76 285.88 1773.9 284.34 1776.19C283.13 1778 282.53 1780.57 282.53 1783.9V1817.87H275.88V1784.1C275.88 1779.68 275.06 1776.62 273.42 1774.91C272.02 1773.49 270 1772.77 267.34 1772.77C264.06 1772.77 261.75 1774.03 260.4 1776.55C259.38 1778.44 258.87 1781.12 258.87 1784.59Z" fill="#E2D3B5"/>
<path d="M319.12 1786.04V1805.07C319.12 1807.3 319.98 1809.17 321.69 1810.68C323.4 1812.2 325.44 1812.95 327.8 1812.95C330.11 1812.95 332.09 1812.12 333.73 1810.46C335.37 1808.8 336.19 1806.79 336.19 1804.42V1786.02H341.61V1806.97C341.61 1810.28 340.22 1813.01 337.45 1815.14C334.68 1817.27 331.46 1818.34 327.79 1818.34C324.08 1818.34 320.89 1817.32 318.24 1815.29C315.39 1813.11 313.97 1810.34 313.97 1806.98V1786.03H319.12V1786.04ZM318.83 1780.36C318.83 1779.41 319.07 1778.63 319.55 1778.02C320.03 1777.41 320.73 1777.1 321.65 1777.1C322.42 1777.1 323.14 1777.36 323.82 1777.88C324.49 1778.4 324.83 1779.06 324.83 1779.87C324.83 1780.68 324.61 1781.36 324.18 1781.93C323.75 1782.5 323.12 1782.83 322.3 1782.92C321.43 1783.11 320.64 1782.94 319.91 1782.42C319.19 1781.9 318.83 1781.21 318.83 1780.36ZM329.68 1780.36C329.68 1779.41 329.92 1778.63 330.4 1778.02C330.88 1777.41 331.58 1777.1 332.5 1777.1C333.27 1777.1 333.99 1777.36 334.67 1777.88C335.34 1778.4 335.68 1779.06 335.68 1779.87C335.68 1780.68 335.46 1781.36 335.03 1781.93C334.6 1782.5 333.97 1782.83 333.15 1782.92C332.28 1783.11 331.49 1782.94 330.76 1782.42C330.04 1781.9 329.68 1781.21 329.68 1780.36Z" fill="#E2D3B5"/>
<path d="M348.42 1817.86V1767.43H353.77V1817.86H348.42Z" fill="#E2D3B5"/>
<path d="M365.49 1799.75V1818H360.57V1767.43H365.71V1785.1C365.71 1785.72 365.71 1786.22 365.71 1786.6C365.71 1787.31 365.77 1787.85 365.89 1788.2C366.01 1788.56 366.26 1788.62 366.65 1788.38C367.37 1788 368.6 1787.59 370.34 1787.14C372.08 1786.69 373.76 1786.47 375.4 1786.47C376.7 1786.47 377.8 1786.58 378.69 1786.79C379.58 1787 380.51 1787.39 381.47 1787.96C383.45 1789.19 384.93 1790.61 385.92 1792.22C386.91 1793.83 387.4 1795.75 387.4 1797.97V1818H381.9V1800.39C381.9 1797.93 381.32 1795.87 380.16 1794.21C378.81 1792.32 377 1791.37 374.74 1791.37C372.43 1791.37 370.3 1792.18 368.37 1793.78C366.45 1795.4 365.49 1797.38 365.49 1799.75Z" fill="#E2D3B5"/>
<path d="M425.37 1804.58H402.02C400.96 1804.58 400.17 1804.63 399.66 1804.72C399.15 1804.82 398.85 1805.15 398.75 1805.71C398.46 1807.23 399.42 1808.89 401.64 1810.72C403.86 1812.54 406.17 1813.45 408.58 1813.45C410.12 1813.45 411.71 1813.1 413.35 1812.38C414.46 1811.91 415.66 1811.2 416.97 1810.25L420.22 1813.94C418.39 1815.46 416.55 1816.57 414.72 1817.28C412.89 1817.99 410.79 1818.35 408.43 1818.35C403.99 1818.35 400.22 1816.75 397.11 1813.56C394 1810.36 392.44 1806.54 392.44 1802.09C392.44 1797.83 394.03 1794.18 397.21 1791.15C400.39 1788.12 404.2 1786.6 408.64 1786.6C413.17 1786.6 417.09 1788.2 420.39 1791.39C423.69 1794.59 425.34 1798.39 425.34 1802.79C425.37 1803.61 425.37 1804.2 425.37 1804.58ZM419.15 1798.76C418.62 1796.68 417.43 1794.97 415.57 1793.65C413.71 1792.33 411.58 1791.66 409.17 1791.66C406.81 1791.66 404.53 1792.49 402.33 1794.15C400.14 1795.81 399.13 1797.47 399.33 1799.12C399.38 1799.36 399.59 1799.52 399.98 1799.62C400.37 1799.72 400.8 1799.76 401.28 1799.76C401.71 1799.76 402.03 1799.76 402.22 1799.76H415.67C416.2 1799.76 416.61 1799.76 416.9 1799.76C417.72 1799.76 418.33 1799.69 418.74 1799.55C419.17 1799.4 419.3 1799.14 419.15 1798.76Z" fill="#E2D3B5"/>
<path d="M428.92 1778.37C428.92 1777.38 429.28 1776.52 430 1775.81C430.72 1775.1 431.62 1774.74 432.68 1774.74C433.69 1774.74 434.56 1775.09 435.28 1775.81C436 1776.52 436.37 1777.37 436.37 1778.37C436.37 1779.37 436.01 1780.22 435.28 1780.93C434.56 1781.64 433.69 1782 432.68 1782C431.62 1782 430.73 1781.67 430 1781.01C429.28 1780.34 428.92 1779.46 428.92 1778.37ZM430.08 1818V1786.11H435.43V1818H430.08Z" fill="#E2D3B5"/>
<path d="M456.04 1786.19C457.97 1786.19 459.8 1786.61 461.54 1787.45C463.28 1788.29 464.75 1789.43 465.95 1790.88C468.51 1787.76 471.95 1786.19 476.29 1786.19C479.66 1786.19 482.59 1787.32 485.08 1789.58C487.56 1791.84 488.8 1794.61 488.8 1797.89V1818.01H483.74V1800.01C483.74 1797.77 483.04 1795.83 481.64 1794.19C480.24 1792.55 478.46 1791.73 476.29 1791.73C474.12 1791.73 472.29 1792.56 470.79 1794.23C469.29 1795.9 468.55 1797.82 468.55 1800.01V1818.01H463.49V1799.75C463.49 1797.51 462.79 1795.56 461.39 1793.91C459.99 1792.26 458.21 1791.44 456.04 1791.44C453.87 1791.44 451.98 1792.19 450.36 1793.68C448.74 1795.18 447.94 1796.97 447.94 1799.06V1818H442.95V1797.21C442.95 1793.98 444.25 1791.34 446.86 1789.27C449.46 1787.22 452.52 1786.19 456.04 1786.19Z" fill="#E2D3B5"/>
<path d="M542.48 1800.03L550.15 1818L543.67 1817.88L540.4 1810.76C539 1813.03 537.07 1814.87 534.61 1816.27C532.15 1817.67 529.52 1818.37 526.72 1818.37C522.19 1818.37 518.32 1816.8 515.11 1813.65C511.9 1810.5 510.3 1806.72 510.3 1802.32C510.3 1797.96 511.9 1794.26 515.11 1791.2C518.32 1788.15 522.19 1786.62 526.72 1786.62C530.72 1786.62 534.19 1787.9 537.14 1790.46C540.06 1793 541.85 1796.2 542.48 1800.03ZM526.71 1791.65C523.67 1791.65 521.07 1792.69 518.9 1794.78C516.73 1796.86 515.65 1799.42 515.65 1802.45C515.65 1805.48 516.72 1808.05 518.87 1810.16C521.02 1812.27 523.63 1813.32 526.72 1813.32C529.81 1813.32 532.41 1812.23 534.53 1810.05C536.65 1807.87 537.71 1805.24 537.71 1802.17C537.71 1799.23 536.62 1796.75 534.46 1794.71C532.28 1792.67 529.7 1791.65 526.71 1791.65Z" fill="#E2D3B5"/>
<path d="M556.8 1799.18V1817.86H551.81V1797.4C551.81 1793.56 553.18 1790.7 555.93 1788.81C558.34 1787.15 561.45 1786.32 565.26 1786.32C569.02 1786.32 572.11 1787.2 574.52 1788.95C577.27 1790.94 578.64 1793.76 578.64 1797.4V1817.86H573.36V1799.82C573.36 1796.93 572.62 1794.84 571.15 1793.53C569.68 1792.23 567.71 1791.58 565.25 1791.58C562.89 1791.58 560.89 1792.23 559.25 1793.53C557.62 1794.84 556.8 1796.72 556.8 1799.18Z" fill="#E2D3B5"/>
<path d="M632.16 1802.73C632.16 1806.99 630.63 1810.67 627.57 1813.77C624.51 1816.87 620.85 1818.42 616.61 1818.42C612.37 1818.42 608.51 1816.91 605.04 1813.87C601.57 1810.84 599.83 1807.34 599.83 1803.36C599.83 1799.05 601.3 1795.24 604.24 1791.93C607.37 1788.43 611.16 1786.67 615.6 1786.67C617.43 1786.67 619.17 1786.95 620.81 1787.52C622.45 1788.09 623.94 1788.89 625.29 1789.93C625.63 1790.17 625.82 1790.29 625.87 1790.29C626.06 1790.29 626.16 1789.98 626.16 1789.37V1768.06H632.16V1802.73V1802.73ZM626.52 1802.91C626.52 1799.96 625.55 1797.4 623.63 1795.21C621.56 1792.88 619.02 1791.72 616.04 1791.72C612.95 1791.72 610.37 1792.87 608.3 1795.18C606.23 1797.48 605.19 1800.09 605.19 1802.98C605.19 1805.78 606.27 1808.16 608.44 1810.11C610.61 1812.06 613.17 1813.03 616.11 1813.03C619 1813.03 621.46 1812.06 623.49 1810.11C625.51 1808.16 626.52 1805.76 626.52 1802.91Z" fill="#E2D3B5"/>
<path d="M670.35 1804.58H647C645.94 1804.58 645.15 1804.63 644.64 1804.72C644.13 1804.82 643.83 1805.15 643.73 1805.71C643.44 1807.23 644.4 1808.89 646.62 1810.72C648.84 1812.54 651.15 1813.45 653.56 1813.45C655.1 1813.45 656.69 1813.1 658.33 1812.38C659.44 1811.91 660.64 1811.2 661.95 1810.25L665.2 1813.94C663.37 1815.46 661.53 1816.57 659.7 1817.28C657.87 1817.99 655.77 1818.35 653.41 1818.35C648.97 1818.35 645.2 1816.75 642.09 1813.56C638.98 1810.36 637.42 1806.54 637.42 1802.09C637.42 1797.83 639.01 1794.18 642.19 1791.15C645.37 1788.12 649.18 1786.6 653.62 1786.6C658.15 1786.6 662.07 1788.2 665.37 1791.39C668.67 1794.59 670.32 1798.39 670.32 1802.79C670.35 1803.61 670.35 1804.2 670.35 1804.58ZM664.13 1798.76C663.6 1796.68 662.41 1794.97 660.55 1793.65C658.69 1792.33 656.56 1791.66 654.15 1791.66C651.79 1791.66 649.51 1792.49 647.31 1794.15C645.12 1795.81 644.12 1797.47 644.31 1799.12C644.36 1799.36 644.57 1799.52 644.96 1799.62C645.35 1799.72 645.78 1799.76 646.26 1799.76C646.69 1799.76 647.01 1799.76 647.2 1799.76H660.65C661.18 1799.76 661.59 1799.76 661.88 1799.76C662.7 1799.76 663.31 1799.69 663.72 1799.55C664.14 1799.4 664.28 1799.14 664.13 1798.76Z" fill="#E2D3B5"/>
<path d="M680.34 1804.08V1817.86H675.06V1805C675.06 1804.39 675.06 1803.85 675.06 1803.4C675.06 1802.95 675.06 1802.58 675.06 1802.3C675.06 1798.75 675.36 1796.18 675.96 1794.59C676.56 1793 677.52 1791.57 678.82 1790.29C680.41 1788.73 682.07 1787.63 683.81 1786.99C685.55 1786.35 687.62 1786.03 690.03 1786.03V1791.21C688.2 1791.21 686.64 1791.47 685.36 1791.99C684.08 1792.51 683.03 1793.49 682.21 1794.94C681.39 1796.39 680.87 1797.64 680.66 1798.7C680.44 1799.77 680.33 1801.13 680.33 1802.78C680.34 1803.37 680.34 1803.8 680.34 1804.08Z" fill="#E2D3B5"/>
<path d="M715.41 1800.32V1817.93H709.7V1783.84C709.7 1779.01 711.16 1775.07 714.08 1772.01C717 1768.96 720.7 1767.43 725.18 1767.43C729.38 1767.43 732.92 1768.94 735.81 1771.97C738.7 1775 740.15 1778.57 740.15 1782.69C740.15 1787.19 738.65 1790.76 735.67 1793.41C733.5 1795.35 730.7 1796.7 727.28 1797.46C726.89 1797.51 726.7 1797.7 726.7 1798.03C726.7 1798.31 726.86 1798.73 727.18 1799.27C727.5 1799.82 727.97 1800.51 728.61 1801.36L740.86 1817.82L733.86 1817.93L718.89 1798.54C718.17 1797.5 717.68 1796.88 717.44 1796.69C717.01 1796.36 716.55 1796.24 716.07 1796.33C715.83 1796.38 715.66 1796.67 715.56 1797.22C715.46 1797.77 715.42 1798.37 715.42 1799.03C715.41 1799.66 715.41 1800.08 715.41 1800.32ZM725.43 1773.26C722.84 1773.26 720.63 1774.21 718.8 1776.1C716.97 1777.99 716.06 1780.22 716.06 1782.78C716.06 1785.38 716.95 1787.56 718.73 1789.31C720.51 1791.06 722.79 1791.94 725.57 1791.94C728.07 1791.94 730.12 1790.98 731.73 1789.06C733.34 1787.14 734.14 1784.88 734.14 1782.28C734.14 1779.87 733.3 1777.76 731.62 1775.96C729.95 1774.16 727.88 1773.26 725.43 1773.26Z" fill="#E2D3B5"/>
<path d="M749.92 1786.04V1805.07C749.92 1807.3 750.78 1809.17 752.49 1810.68C754.2 1812.2 756.24 1812.95 758.6 1812.95C760.91 1812.95 762.89 1812.12 764.53 1810.46C766.17 1808.8 766.99 1806.79 766.99 1804.42V1786.02H772.41V1806.97C772.41 1810.28 771.02 1813.01 768.25 1815.14C765.48 1817.27 762.26 1818.34 758.59 1818.34C754.88 1818.34 751.69 1817.32 749.04 1815.29C746.19 1813.11 744.77 1810.34 744.77 1806.98V1786.03H749.92V1786.04Z" fill="#E2D3B5"/>
<path d="M784.13 1799.75V1818H779.21V1767.43H784.35V1785.1C784.35 1785.72 784.35 1786.22 784.35 1786.6C784.35 1787.31 784.41 1787.85 784.53 1788.2C784.65 1788.56 784.9 1788.62 785.29 1788.38C786.01 1788 787.24 1787.59 788.98 1787.14C790.72 1786.69 792.4 1786.47 794.04 1786.47C795.34 1786.47 796.44 1786.58 797.33 1786.79C798.22 1787 799.15 1787.39 800.11 1787.96C802.09 1789.19 803.57 1790.61 804.56 1792.22C805.55 1793.83 806.04 1795.75 806.04 1797.97V1818H800.54V1800.39C800.54 1797.93 799.96 1795.87 798.8 1794.21C797.45 1792.32 795.64 1791.37 793.38 1791.37C791.07 1791.37 788.94 1792.18 787.01 1793.78C785.09 1795.4 784.13 1797.38 784.13 1799.75Z" fill="#E2D3B5"/>
<path d="M818.05 1804.08V1817.86H812.77V1805C812.77 1804.39 812.77 1803.85 812.77 1803.4C812.77 1802.95 812.77 1802.58 812.77 1802.3C812.77 1798.75 813.07 1796.18 813.67 1794.59C814.27 1793 815.23 1791.57 816.53 1790.29C818.12 1788.73 819.78 1787.63 821.52 1786.99C823.26 1786.35 825.33 1786.03 827.74 1786.03V1791.21C825.91 1791.21 824.35 1791.47 823.07 1791.99C821.79 1792.51 820.74 1793.49 819.92 1794.94C819.1 1796.39 818.58 1797.64 818.37 1798.7C818.16 1799.76 818.04 1801.13 818.04 1802.78C818.05 1803.37 818.05 1803.8 818.05 1804.08Z" fill="#E2D3B5"/>
</svg>
