<?xml version="1.0" encoding="utf-8"?>
<!-- Generator: Adobe Illustrator 25.4.1, SVG Export Plug-In . SVG Version: 6.00 Build 0)  -->
<svg version="1.1" id="Ebene_1" xmlns="http://www.w3.org/2000/svg" xmlns:xlink="http://www.w3.org/1999/xlink" x="0px" y="0px"
	 viewBox="0 0 1080 1865" enable-background="new 0 0 1080 1865" xml:space="preserve">
<g>
	<g>
		<polygon fill="#253032" points="1025,1554.95 1025,1810 55,1810 55,1554.95 0,1554.95 0,1865 1080,1865 1080,1554.95 		"/>
		<rect x="65" y="1554.95" fill="#253032" width="950" height="245.05"/>
		<polygon fill="#253032" points="65,10 1015,10 1015,1554.95 1025,1554.95 1025,0 55,0 55,1554.95 65,1554.95 		"/>
	</g>
	<g>
		<g>
			<path fill="#E2D3B5" d="M258.87,1726.76v33.27H252v-33.55c0-4.7,1.25-8.69,3.76-11.97c2.7-3.56,6.34-5.34,10.92-5.34
				c3.23,0,5.86,0.65,7.88,1.96c1.64,1.41,3.28,2.81,4.92,4.22c1.35-1.61,2.99-3.01,4.92-4.19c2.17-1.33,4.89-1.99,8.17-1.99
				c4.34,0,7.81,1.67,10.42,5.01c2.6,3.34,3.91,7.54,3.91,12.61v33.24h-6.87v-33.33c0-3.04-0.63-5.68-1.88-7.92
				c-1.45-2.57-3.45-3.85-6-3.85c-3.67,0-6.27,1.14-7.81,3.43c-1.21,1.81-1.81,4.38-1.81,7.71v33.97h-6.65v-33.77
				c0-4.42-0.82-7.48-2.46-9.19c-1.4-1.42-3.42-2.14-6.08-2.14c-3.28,0-5.59,1.26-6.94,3.78
				C259.38,1720.61,258.87,1723.29,258.87,1726.76z"/>
			<path fill="#E2D3B5" d="M319.12,1728.21v19.03c0,2.23,0.86,4.1,2.57,5.61c1.71,1.52,3.75,2.27,6.11,2.27
				c2.31,0,4.29-0.83,5.93-2.49c1.64-1.66,2.46-3.67,2.46-6.04v-18.4h5.42v20.95c0,3.31-1.39,6.04-4.16,8.17
				c-2.77,2.13-5.99,3.2-9.66,3.2c-3.71,0-6.9-1.02-9.55-3.05c-2.85-2.18-4.27-4.95-4.27-8.31v-20.95H319.12z M318.83,1722.53
				c0-0.95,0.24-1.73,0.72-2.34c0.48-0.61,1.18-0.92,2.1-0.92c0.77,0,1.49,0.26,2.17,0.78c0.67,0.52,1.01,1.18,1.01,1.99
				c0,0.81-0.22,1.49-0.65,2.06c-0.43,0.57-1.06,0.9-1.88,0.99c-0.87,0.19-1.66,0.02-2.39-0.5
				C319.19,1724.07,318.83,1723.38,318.83,1722.53z M329.68,1722.53c0-0.95,0.24-1.73,0.72-2.34c0.48-0.61,1.18-0.92,2.1-0.92
				c0.77,0,1.49,0.26,2.17,0.78c0.67,0.52,1.01,1.18,1.01,1.99c0,0.81-0.22,1.49-0.65,2.06c-0.43,0.57-1.06,0.9-1.88,0.99
				c-0.87,0.19-1.66,0.02-2.39-0.5C330.04,1724.07,329.68,1723.38,329.68,1722.53z"/>
			<path fill="#E2D3B5" d="M348.42,1760.03v-50.43h5.35v50.43H348.42z"/>
			<path fill="#E2D3B5" d="M365.49,1741.92v18.25h-4.92v-50.57h5.14v17.67c0,0.62,0,1.12,0,1.5c0,0.71,0.06,1.25,0.18,1.6
				c0.12,0.36,0.37,0.42,0.76,0.18c0.72-0.38,1.95-0.79,3.69-1.24c1.74-0.45,3.42-0.67,5.06-0.67c1.3,0,2.4,0.11,3.29,0.32
				c0.89,0.21,1.82,0.6,2.78,1.17c1.98,1.23,3.46,2.65,4.45,4.26c0.99,1.61,1.48,3.53,1.48,5.75v20.03h-5.5v-17.61
				c0-2.46-0.58-4.52-1.74-6.18c-1.35-1.89-3.16-2.84-5.42-2.84c-2.31,0-4.44,0.81-6.37,2.41
				C366.45,1737.57,365.49,1739.55,365.49,1741.92z"/>
			<path fill="#E2D3B5" d="M425.37,1746.75h-23.35c-1.06,0-1.85,0.05-2.36,0.14c-0.51,0.1-0.81,0.43-0.91,0.99
				c-0.29,1.52,0.67,3.18,2.89,5.01c2.22,1.82,4.53,2.73,6.94,2.73c1.54,0,3.13-0.35,4.77-1.07c1.11-0.47,2.31-1.18,3.62-2.13
				l3.25,3.69c-1.83,1.52-3.67,2.63-5.5,3.34c-1.83,0.71-3.93,1.07-6.29,1.07c-4.44,0-8.21-1.6-11.32-4.79
				c-3.11-3.2-4.67-7.02-4.67-11.47c0-4.26,1.59-7.91,4.77-10.94c3.18-3.03,6.99-4.55,11.43-4.55c4.53,0,8.45,1.6,11.75,4.79
				c3.3,3.2,4.95,7,4.95,11.4C425.37,1745.78,425.37,1746.37,425.37,1746.75z M419.15,1740.93c-0.53-2.08-1.72-3.79-3.58-5.11
				c-1.86-1.32-3.99-1.99-6.4-1.99c-2.36,0-4.64,0.83-6.84,2.49c-2.19,1.66-3.2,3.32-3,4.97c0.05,0.24,0.26,0.4,0.65,0.5
				c0.39,0.1,0.82,0.14,1.3,0.14c0.43,0,0.75,0,0.94,0h13.45c0.53,0,0.94,0,1.23,0c0.82,0,1.43-0.07,1.84-0.21
				C419.17,1741.57,419.3,1741.31,419.15,1740.93z"/>
			<path fill="#E2D3B5" d="M428.92,1720.54c0-0.99,0.36-1.85,1.08-2.56s1.62-1.07,2.68-1.07c1.01,0,1.88,0.35,2.6,1.07
				c0.72,0.71,1.09,1.56,1.09,2.56s-0.36,1.85-1.09,2.56c-0.72,0.71-1.59,1.07-2.6,1.07c-1.06,0-1.95-0.33-2.68-0.99
				C429.28,1722.51,428.92,1721.63,428.92,1720.54z M430.08,1760.17v-31.89h5.35v31.89H430.08z"/>
			<path fill="#E2D3B5" d="M456.04,1728.36c1.93,0,3.76,0.42,5.5,1.26c1.74,0.84,3.21,1.98,4.41,3.43c2.56-3.12,6-4.69,10.34-4.69
				c3.37,0,6.3,1.13,8.79,3.39c2.48,2.26,3.72,5.03,3.72,8.31v20.12h-5.06v-18c0-2.24-0.7-4.18-2.1-5.82
				c-1.4-1.64-3.18-2.46-5.35-2.46s-4,0.83-5.5,2.5c-1.5,1.67-2.24,3.59-2.24,5.78v18h-5.06v-18.26c0-2.24-0.7-4.19-2.1-5.84
				c-1.4-1.65-3.18-2.47-5.35-2.47s-4.06,0.75-5.68,2.24c-1.62,1.5-2.42,3.29-2.42,5.38v18.94h-4.99v-20.79
				c0-3.23,1.3-5.87,3.91-7.94C449.46,1729.39,452.52,1728.36,456.04,1728.36z"/>
			<path fill="#E2D3B5" d="M542.48,1742.2l7.67,17.97l-6.48-0.12l-3.27-7.12c-1.4,2.27-3.33,4.11-5.79,5.51
				c-2.46,1.4-5.09,2.1-7.89,2.1c-4.53,0-8.4-1.57-11.61-4.72c-3.21-3.15-4.81-6.93-4.81-11.33c0-4.36,1.6-8.06,4.81-11.12
				c3.21-3.05,7.08-4.58,11.61-4.58c4,0,7.47,1.28,10.42,3.84C540.06,1735.17,541.85,1738.37,542.48,1742.2z M526.71,1733.82
				c-3.04,0-5.64,1.04-7.81,3.13c-2.17,2.08-3.25,4.64-3.25,7.67c0,3.03,1.07,5.6,3.22,7.71c2.15,2.11,4.76,3.16,7.85,3.16
				c3.09,0,5.69-1.09,7.81-3.27c2.12-2.18,3.18-4.81,3.18-7.88c0-2.94-1.09-5.42-3.25-7.46
				C532.28,1734.84,529.7,1733.82,526.71,1733.82z"/>
			<path fill="#E2D3B5" d="M556.8,1741.35v18.68h-4.99v-20.46c0-3.84,1.37-6.7,4.12-8.59c2.41-1.66,5.52-2.49,9.33-2.49
				c3.76,0,6.85,0.88,9.26,2.63c2.75,1.99,4.12,4.81,4.12,8.45v20.46h-5.28v-18.04c0-2.89-0.74-4.98-2.21-6.29
				c-1.47-1.3-3.44-1.95-5.9-1.95c-2.36,0-4.36,0.65-6,1.95C557.62,1737.01,556.8,1738.89,556.8,1741.35z"/>
			<path fill="#E2D3B5" d="M632.16,1744.9c0,4.26-1.53,7.94-4.59,11.04c-3.06,3.1-6.72,4.65-10.96,4.65c-4.24,0-8.1-1.51-11.57-4.55
				c-3.47-3.03-5.21-6.53-5.21-10.51c0-4.31,1.47-8.12,4.41-11.43c3.13-3.5,6.92-5.26,11.36-5.26c1.83,0,3.57,0.28,5.21,0.85
				c1.64,0.57,3.13,1.37,4.48,2.41c0.34,0.24,0.53,0.36,0.58,0.36c0.19,0,0.29-0.31,0.29-0.92v-21.31h6V1744.9z M626.52,1745.08
				c0-2.95-0.97-5.51-2.89-7.7c-2.07-2.33-4.61-3.49-7.59-3.49c-3.09,0-5.67,1.15-7.74,3.46c-2.07,2.3-3.11,4.91-3.11,7.8
				c0,2.8,1.08,5.18,3.25,7.13c2.17,1.95,4.73,2.92,7.67,2.92c2.89,0,5.35-0.97,7.38-2.92
				C625.51,1750.33,626.52,1747.93,626.52,1745.08z"/>
			<path fill="#E2D3B5" d="M670.35,1746.75H647c-1.06,0-1.85,0.05-2.36,0.14c-0.51,0.1-0.81,0.43-0.91,0.99
				c-0.29,1.52,0.67,3.18,2.89,5.01c2.22,1.82,4.53,2.73,6.94,2.73c1.54,0,3.13-0.35,4.77-1.07c1.11-0.47,2.31-1.18,3.62-2.13
				l3.25,3.69c-1.83,1.52-3.67,2.63-5.5,3.34c-1.83,0.71-3.93,1.07-6.29,1.07c-4.44,0-8.21-1.6-11.32-4.79
				c-3.11-3.2-4.67-7.02-4.67-11.47c0-4.26,1.59-7.91,4.77-10.94c3.18-3.03,6.99-4.55,11.43-4.55c4.53,0,8.45,1.6,11.75,4.79
				c3.3,3.2,4.95,7,4.95,11.4C670.35,1745.78,670.35,1746.37,670.35,1746.75z M664.13,1740.93c-0.53-2.08-1.72-3.79-3.58-5.11
				c-1.86-1.32-3.99-1.99-6.4-1.99c-2.36,0-4.64,0.83-6.84,2.49c-2.19,1.66-3.19,3.32-3,4.97c0.05,0.24,0.26,0.4,0.65,0.5
				c0.39,0.1,0.82,0.14,1.3,0.14c0.43,0,0.75,0,0.94,0h13.45c0.53,0,0.94,0,1.23,0c0.82,0,1.43-0.07,1.84-0.21
				C664.14,1741.57,664.28,1741.31,664.13,1740.93z"/>
			<path fill="#E2D3B5" d="M680.34,1746.25v13.78h-5.28v-12.86c0-0.61,0-1.15,0-1.6c0-0.45,0-0.82,0-1.1c0-3.55,0.3-6.12,0.9-7.71
				c0.6-1.59,1.56-3.02,2.86-4.3c1.59-1.56,3.25-2.66,4.99-3.3c1.74-0.64,3.81-0.96,6.22-0.96v5.18c-1.83,0-3.39,0.26-4.67,0.78
				c-1.28,0.52-2.33,1.5-3.15,2.95c-0.82,1.45-1.34,2.7-1.55,3.76c-0.22,1.07-0.33,2.43-0.33,4.08
				C680.34,1745.54,680.34,1745.97,680.34,1746.25z"/>
			<path fill="#E2D3B5" d="M715.41,1742.49v17.61h-5.71v-34.09c0-4.83,1.46-8.77,4.38-11.83c2.92-3.05,6.62-4.58,11.1-4.58
				c4.2,0,7.74,1.51,10.63,4.54c2.89,3.03,4.34,6.6,4.34,10.72c0,4.5-1.5,8.07-4.48,10.72c-2.17,1.94-4.97,3.29-8.39,4.05
				c-0.39,0.05-0.58,0.24-0.58,0.57c0,0.28,0.16,0.7,0.48,1.24c0.32,0.55,0.79,1.24,1.43,2.09l12.25,16.46l-7,0.11l-14.97-19.39
				c-0.72-1.04-1.21-1.66-1.45-1.85c-0.43-0.33-0.89-0.45-1.37-0.36c-0.24,0.05-0.41,0.34-0.51,0.89c-0.1,0.55-0.14,1.15-0.14,1.81
				C715.41,1741.83,715.41,1742.25,715.41,1742.49z M725.43,1715.43c-2.59,0-4.8,0.95-6.63,2.84c-1.83,1.89-2.74,4.12-2.74,6.68
				c0,2.6,0.89,4.78,2.67,6.53c1.78,1.75,4.06,2.63,6.84,2.63c2.5,0,4.55-0.96,6.16-2.88c1.61-1.92,2.41-4.18,2.41-6.78
				c0-2.41-0.84-4.52-2.52-6.32C729.95,1716.33,727.88,1715.43,725.43,1715.43z"/>
			<path fill="#E2D3B5" d="M749.92,1728.21v19.03c0,2.23,0.86,4.1,2.57,5.61c1.71,1.52,3.75,2.27,6.11,2.27
				c2.31,0,4.29-0.83,5.93-2.49c1.64-1.66,2.46-3.67,2.46-6.04v-18.4h5.42v20.95c0,3.31-1.39,6.04-4.16,8.17
				c-2.77,2.13-5.99,3.2-9.66,3.2c-3.71,0-6.9-1.02-9.55-3.05c-2.85-2.18-4.27-4.95-4.27-8.31v-20.95H749.92z"/>
			<path fill="#E2D3B5" d="M784.13,1741.92v18.25h-4.92v-50.57h5.14v17.67c0,0.62,0,1.12,0,1.5c0,0.71,0.06,1.25,0.18,1.6
				c0.12,0.36,0.37,0.42,0.76,0.18c0.72-0.38,1.95-0.79,3.69-1.24c1.74-0.45,3.42-0.67,5.06-0.67c1.3,0,2.4,0.11,3.29,0.32
				c0.89,0.21,1.82,0.6,2.78,1.17c1.98,1.23,3.46,2.65,4.45,4.26c0.99,1.61,1.48,3.53,1.48,5.75v20.03h-5.5v-17.61
				c0-2.46-0.58-4.52-1.74-6.18c-1.35-1.89-3.16-2.84-5.42-2.84c-2.31,0-4.44,0.81-6.37,2.41
				C785.09,1737.57,784.13,1739.55,784.13,1741.92z"/>
			<path fill="#E2D3B5" d="M818.05,1746.25v13.78h-5.28v-12.86c0-0.61,0-1.15,0-1.6c0-0.45,0-0.82,0-1.1c0-3.55,0.3-6.12,0.9-7.71
				c0.6-1.59,1.56-3.02,2.86-4.3c1.59-1.56,3.25-2.66,4.99-3.3c1.74-0.64,3.81-0.96,6.22-0.96v5.18c-1.83,0-3.39,0.26-4.67,0.78
				c-1.28,0.52-2.33,1.5-3.15,2.95c-0.82,1.45-1.34,2.7-1.55,3.76s-0.33,2.43-0.33,4.08
				C818.05,1745.54,818.05,1745.97,818.05,1746.25z"/>
		</g>
		<g>
			<path fill="#E2D3B5" d="M149.86,1678.43v-91.45c0.95,0,1.64,0,2.08,0c0.86,0,1.51,0,1.95,0c0.78,0,1.34,0,1.69,0
				c1.64,0,3.01,0,4.09,0c1.08,0,2.1,0,3.05,0c13.5,0,25.05,4.14,34.66,12.41c10.04,8.7,15.06,19.57,15.06,32.62
				c0,15.86-5.71,28.05-17.13,36.58c-8.74,6.57-18.43,9.85-29.08,9.85H149.86z M162.19,1663.48c0,2.9,2.03,4.35,6.1,4.35
				c6.66,0,13.41-3.07,20.25-9.21c8.05-7.25,12.07-16.16,12.07-26.74c0-9.55-4.2-17.79-12.59-24.7c-7.18-5.97-14.06-8.96-20.64-8.96
				c-3.46,0-5.19,1.2-5.19,3.58V1663.48z"/>
			<path fill="#E2D3B5" d="M232.81,1653.68v24.75h-11.42v-61.05c0-8.51,2.86-15.71,8.57-21.59c5.71-5.88,12.76-8.81,21.16-8.81
				c8.22,0,15.27,2.98,21.16,8.94c5.88,5.96,8.83,13.07,8.83,21.33v61.18h-11.16v-22.48c0-1.62,0-2.81,0-3.58
				c0-1.02-0.09-1.92-0.26-2.68c-0.17-0.77-0.58-1.4-1.23-1.92c-0.65-0.51-1.67-0.77-3.05-0.77c-1.13,0-1.99,0-2.6,0h-24.14
				c-1.21,0-2.03,0.04-2.47,0.13c-0.69,0.17-1.43,0.58-2.21,1.22c-0.78,0.64-1.17,1.86-1.17,3.65
				C232.81,1652.78,232.81,1653.34,232.81,1653.68z M269.42,1629.13v-12.52c0-5.28-1.69-9.73-5.08-13.35
				c-3.39-3.62-7.86-5.43-13.42-5.43c-5.3,0-9.58,2.04-12.83,6.13c-3.26,4.09-4.88,8.9-4.88,14.43v11.37c0,1.11,0,1.92,0,2.43
				c0,1.19,0.3,2.15,0.9,2.87c0.6,0.72,1.38,1.19,2.33,1.4c0.95,0.21,2.11,0.32,3.49,0.32h21.86c0.86,0,1.47,0,1.81,0
				c1.29,0,2.11-0.04,2.46-0.13c0.77-0.17,1.46-0.59,2.07-1.28c0.34-0.34,0.65-0.81,0.9-1.41c0.26-0.59,0.39-1.36,0.39-2.3
				C269.42,1630.58,269.42,1629.72,269.42,1629.13z"/>
			<path fill="#E2D3B5" d="M327.31,1605.37c-1.82-3.15-3.48-5.24-5-6.26c-1.52-1.02-3.66-1.53-6.43-1.53
				c-3.37,0-6.23,1.32-8.57,3.96c-2.34,2.64-3.5,5.66-3.5,9.07c0,4.17,3.5,7.75,10.51,10.73c11.08,4.68,17.61,7.75,19.6,9.2
				c7.01,5.11,10.51,12.43,10.51,21.97c0,7.41-2.71,13.73-8.11,18.97c-5.41,5.24-11.71,7.85-18.89,7.85
				c-6.06,0-11.73-1.87-17.01-5.62c-5.71-4.09-9.3-9.28-10.77-15.58l10.64-4.47c0.86,4.26,2.79,7.75,5.78,10.47
				c2.99,2.73,6.64,4.09,10.97,4.09c4.33,0,8.13-1.57,11.42-4.73c3.29-3.15,4.93-6.81,4.93-10.98c0-7.32-3.5-12.73-10.51-16.22
				c-6.58-2.55-13.11-5.15-19.6-7.79c-7.01-3.75-10.51-9.66-10.51-17.75c0-6.47,2.1-11.98,6.3-16.54c4.2-4.55,9.8-6.83,16.81-6.83
				c4.76,0,9.06,1.24,12.92,3.7c3.85,2.47,6.51,5.83,7.98,10.09L327.31,1605.37z"/>
			<path fill="#E2D3B5" d="M376.51,1598.6v-10.98h61.14v10.98h-18.69c-1.04,0-2.1,0.02-3.18,0.06c-1.08,0.04-1.82,0.3-2.21,0.77
				c-0.39,0.47-0.58,1.26-0.58,2.36c0,0.77,0,1.32,0,1.66v74.97h-12.72v-74.85c0-2.04-0.22-3.32-0.65-3.83
				c-0.43-0.51-1-0.85-1.69-1.02c-0.43-0.08-1.17-0.13-2.21-0.13H376.51z"/>
			<path fill="#E2D3B5" d="M455.69,1653.68v24.75h-11.42v-61.05c0-8.51,2.86-15.71,8.57-21.59c5.71-5.88,12.76-8.81,21.16-8.81
				c8.22,0,15.27,2.98,21.16,8.94c5.88,5.96,8.83,13.07,8.83,21.33v61.18h-11.16v-22.48c0-1.62,0-2.81,0-3.58
				c0-1.02-0.09-1.92-0.26-2.68c-0.17-0.77-0.58-1.4-1.23-1.92c-0.65-0.51-1.67-0.77-3.05-0.77c-1.13,0-1.99,0-2.6,0h-24.14
				c-1.21,0-2.03,0.04-2.47,0.13c-0.69,0.17-1.43,0.58-2.21,1.22c-0.78,0.64-1.17,1.86-1.17,3.65
				C455.69,1652.78,455.69,1653.34,455.69,1653.68z M492.3,1629.13v-12.52c0-5.28-1.69-9.73-5.08-13.35
				c-3.39-3.62-7.86-5.43-13.42-5.43c-5.3,0-9.58,2.04-12.83,6.13s-4.88,8.9-4.88,14.43v11.37c0,1.11,0,1.92,0,2.43
				c0,1.19,0.3,2.15,0.9,2.87c0.6,0.72,1.38,1.19,2.33,1.4c0.95,0.21,2.11,0.32,3.49,0.32h21.86c0.86,0,1.47,0,1.81,0
				c1.29,0,2.11-0.04,2.46-0.13c0.77-0.17,1.46-0.59,2.07-1.28c0.34-0.34,0.65-0.81,0.9-1.41c0.26-0.59,0.39-1.36,0.39-2.3
				C492.3,1630.58,492.3,1629.72,492.3,1629.13z"/>
			<path fill="#E2D3B5" d="M527.73,1678.55h-10.25v-90.87l46.69,52.99c1.28,1.53,2.39,2.68,3.33,3.45c1.37,1.11,2.31,1.49,2.82,1.15
				c0.43-0.26,0.73-1.17,0.9-2.75c0.17-1.57,0.26-3.21,0.26-4.91c0-1.78,0-2.85,0-3.19v-46.68h11.03v91.42L535,1625.04
				c-1.3-1.62-2.03-2.51-2.21-2.68c-1.04-0.94-2.08-1.23-3.12-0.89c-1.3,0.43-1.95,1.62-1.95,3.58c0,1.36,0,2.38,0,3.07V1678.55z"/>
			<path fill="#E2D3B5" d="M596.4,1598.47v-10.86h52.96c-3.46,6.72-6.92,13.43-10.38,20.15c-6.58,12.92-13.03,25.5-19.34,37.75
				c-7.01,13.77-10.56,20.74-10.64,20.91c-0.09,0.51,0.24,0.83,0.97,0.96c0.73,0.13,1.8,0.19,3.18,0.19h33.88v10.73h-58.93
				l40.89-78.17c0-0.68-0.39-1.13-1.17-1.34c-0.78-0.21-1.95-0.32-3.5-0.32c-1.04,0-1.77,0-2.21,0H596.4z"/>
			<path fill="#E2D3B5" d="M668.96,1633.22c-0.52,0.34-0.78,1.71-0.78,4.11c0,0.77,0,1.52,0,2.25c0,0.73,0,1.43,0,2.12v36.73h-12.33
				v-90.81h12.33v26.09c0,1.44,0,2.5,0,3.18c0,0.76,0.02,1.51,0.06,2.23c0.04,0.72,0.3,1.31,0.78,1.78c0.48,0.47,1.67,0.7,3.58,0.7
				h32.29c0.78,0,1.34,0,1.69,0c1.3,0,2.25-0.06,2.86-0.19c0.61-0.13,0.96-0.49,1.04-1.08c0.26-0.68,0.39-1.57,0.39-2.67
				c0-1.36,0-2.29,0-2.8v-27.23h12.33v90.81h-12.33v-38.68c0-1.28,0-2.22,0-2.82c0-1.88-0.17-3.03-0.52-3.46
				c-0.35-0.51-1.08-0.77-2.21-0.77c-1.04,0-1.82,0-2.34,0h-32.06c-0.87,0-1.52,0-1.95,0
				C670.52,1632.7,669.57,1632.87,668.96,1633.22z"/>
			<path fill="#E2D3B5" d="M747.11,1653.68v24.75h-11.42v-61.05c0-8.51,2.86-15.71,8.57-21.59c5.71-5.88,12.76-8.81,21.16-8.81
				c8.22,0,15.27,2.98,21.16,8.94c5.88,5.96,8.83,13.07,8.83,21.33v61.18h-11.16v-22.48c0-1.62,0-2.81,0-3.58
				c0-1.02-0.09-1.92-0.26-2.68c-0.17-0.77-0.58-1.4-1.23-1.92c-0.65-0.51-1.67-0.77-3.05-0.77c-1.13,0-1.99,0-2.6,0h-24.14
				c-1.21,0-2.03,0.04-2.47,0.13c-0.69,0.17-1.43,0.58-2.21,1.22c-0.78,0.64-1.17,1.86-1.17,3.65
				C747.11,1652.78,747.11,1653.34,747.11,1653.68z M783.71,1629.13v-12.52c0-5.28-1.69-9.73-5.08-13.35
				c-3.39-3.62-7.86-5.43-13.42-5.43c-5.3,0-9.58,2.04-12.83,6.13c-3.26,4.09-4.88,8.9-4.88,14.43v11.37c0,1.11,0,1.92,0,2.43
				c0,1.19,0.3,2.15,0.9,2.87c0.6,0.72,1.38,1.19,2.33,1.4c0.95,0.21,2.11,0.32,3.49,0.32h21.86c0.86,0,1.47,0,1.81,0
				c1.29,0,2.11-0.04,2.46-0.13c0.77-0.17,1.46-0.59,2.07-1.28c0.34-0.34,0.65-0.81,0.9-1.41c0.26-0.59,0.39-1.36,0.39-2.3
				C783.71,1630.58,783.71,1629.72,783.71,1629.13z"/>
			<path fill="#E2D3B5" d="M806.82,1643.56v-56.71h11.55v56.71c0,6.9,1.43,12.48,4.28,16.73c3.46,5.11,8.65,7.66,15.58,7.66
				c7.44,0,12.72-2.6,15.84-7.79c2.34-3.92,3.5-9.54,3.5-16.86v-56.45h11.55v56.45c0,10.73-2.34,19.16-7.01,25.29
				c-5.37,7.07-13.46,10.6-24.27,10.6c-9.78,0-17.48-3.45-23.11-10.35C809.46,1662.38,806.82,1653.95,806.82,1643.56z"/>
			<path fill="#E2D3B5" d="M913,1605.37c-1.82-3.15-3.48-5.24-5-6.26c-1.52-1.02-3.66-1.53-6.43-1.53c-3.37,0-6.23,1.32-8.57,3.96
				c-2.34,2.64-3.5,5.66-3.5,9.07c0,4.17,3.5,7.75,10.51,10.73c11.08,4.68,17.61,7.75,19.6,9.2c7.01,5.11,10.51,12.43,10.51,21.97
				c0,7.41-2.71,13.73-8.11,18.97c-5.41,5.24-11.71,7.85-18.89,7.85c-6.06,0-11.73-1.87-17-5.62c-5.71-4.09-9.3-9.28-10.77-15.58
				l10.64-4.47c0.86,4.26,2.79,7.75,5.78,10.47c2.99,2.73,6.64,4.09,10.97,4.09c4.33,0,8.13-1.57,11.42-4.73
				c3.29-3.15,4.93-6.81,4.93-10.98c0-7.32-3.5-12.73-10.51-16.22c-6.58-2.55-13.11-5.15-19.6-7.79
				c-7.01-3.75-10.51-9.66-10.51-17.75c0-6.47,2.1-11.98,6.3-16.54c4.2-4.55,9.8-6.83,16.81-6.83c4.76,0,9.06,1.24,12.92,3.7
				c3.85,2.47,6.51,5.83,7.98,10.09L913,1605.37z"/>
		</g>
	</g>
</g>
</svg>
